<?xml version="1.0" encoding="utf-8"?>
<svg version="1.1" width="110px" height="70px" xmlns:xlink="http://www.w3.org/1999/xlink" xmlns="http://www.w3.org/2000/svg">
  <g transform="translate(-576 -384 )">
    <path d="M 586.5 453.5  L 685.5 453.5  L 685.5 394.5  L 680.5 394.5  L 680.5 389.5  L 675.5 389.5  L 675.5 384.5  L 576.5 384.5  L 576.5 443.5  L 581.5 443.5  L 581.5 448.5  L 586.5 448.5  L 586.5 453.5  Z " fill-rule="nonzero" fill="#3399ff" stroke="none" />
    <path d="M 586.5 453.5  L 685.5 453.5  L 685.5 394.5  L 680.5 394.5  L 680.5 389.5  L 675.5 389.5  L 675.5 384.5  L 576.5 384.5  L 576.5 443.5  L 581.5 443.5  L 581.5 448.5  L 586.5 448.5  L 586.5 453.5  Z " stroke-width="1" stroke="#797979" fill="none" />
    <path d="M 680.5 395  L 680.5 448.5  L 587 448.5  M 675.5 390  L 675.5 443.5  L 582 443.5  " stroke-width="1" stroke="#797979" fill="none" />
  </g>
</svg>